# xmcd
#
# Track frame offsets: 
#        150
#        30273
#        54586
#        78846
#        104718
#        132004
#        161318
#        186575
#        227946
#        251189
#        278637
#        295036
#
# Disc length: 4221 seconds
#
# Revision: 0
# Processed by: cddbd v1.5.2PL0 Copyright (c) Steve Scherf et al.
# Submitted via: ExactAudioCopy v0.95b4
#
DISCID=a2107b0c
DTITLE=Various Artist - 4th Annual Blues for the Cure - Volume 2
DYEAR=2003
DGENRE=Blues
TTITLE0=Janiva Magness Band - My Bad Luck Soul
TTITLE1=Janiva Magness Band - Mojo Boogie
TTITLE2=Andy Santana and West Coast Playboys - Honey Hush
TTITLE3=Andy Santana and West Coast Playboys - The Creeper
TTITLE4=Aaron King Quartet - A Real Mutha For Ya
TTITLE5=Aaron King Quartet featuring Gayiel Von - Moondance
TTITLE6=Jimmy Pailer and Lew Fratis - Bend Over Backwards
TTITLE7=Daniel Castro Band featuring Luke Esposito - Sweet Little Ange
TTITLE7=l
TTITLE8=Mick Martin and the Blues Rockers - Stop Breaking My Heart
TTITLE9=Mick Martin and the Blues Rockers - Healing Touch
TTITLE10=Serious Trouble - Big Trouble
TTITLE11=Stacie Eakes with Jimmy Pailer and Lew Fratis - Survivor
EXTD=
EXTT0=
EXTT1=
EXTT2=
EXTT3=
EXTT4=
EXTT5=
EXTT6=
EXTT7=
EXTT8=
EXTT9=
EXTT10=
EXTT11=
PLAYORDER=
